<?xml version="1.0" standalone="no"?>
<!DOCTYPE svg PUBLIC "-//W3C//DTD SVG 20010904//EN"
 "http://www.w3.org/TR/2001/REC-SVG-20010904/DTD/svg10.dtd">
<svg version="1.0" xmlns="http://www.w3.org/2000/svg"
 width="300.000000pt" height="300.000000pt" viewBox="0 0 300.000000 300.000000"
 preserveAspectRatio="xMidYMid meet">
<metadata>
Created by potrace 1.10, written by Peter Selinger 2001-2011
</metadata>
<g transform="translate(0.000000,300.000000) scale(0.100000,-0.100000)"
fill="#000000" stroke="none">
<path d="M1815 2563 c-260 -22 -681 -148 -845 -253 -106 -68 -203 -201 -234
-322 l-13 -52 -121 -37 c-66 -20 -124 -39 -130 -43 -16 -9 -20 -55 -8 -82 6
-13 13 -24 16 -24 4 0 7 -39 8 -87 1 -49 7 -162 12 -253 5 -91 12 -231 16
-312 l6 -148 66 -57 c75 -66 90 -79 152 -129 25 -20 77 -64 115 -98 39 -35
124 -111 189 -169 66 -59 126 -107 134 -107 7 0 37 11 66 24 64 29 74 31 107
22 21 -6 53 5 148 48 67 31 124 56 126 56 2 0 36 15 77 34 64 30 149 68 358
163 235 106 249 114 250 136 0 16 -30 18 -45 4 -8 -9 -24 -19 -35 -22 -11 -3
-20 -11 -20 -16 0 -5 -6 -9 -12 -8 -7 2 -53 -16 -102 -39 -49 -23 -91 -42 -93
-42 -3 0 -56 -25 -118 -55 -63 -30 -116 -55 -119 -55 -3 0 -31 -12 -63 -27
-32 -14 -66 -26 -76 -25 -9 0 -15 -3 -13 -7 3 -4 -19 -16 -49 -27 -38 -12 -54
-23 -52 -34 1 -11 -5 -14 -25 -12 -14 1 -29 -2 -33 -8 -4 -6 1 -7 12 -4 14 4
15 4 4 -4 -7 -5 -22 -7 -32 -5 -11 3 -28 -2 -39 -12 -17 -15 -22 -16 -36 -5
-10 9 -18 10 -22 3 -4 -5 -14 -10 -22 -11 -8 0 -45 -10 -82 -21 l-68 -20 0 22
c0 17 -2 19 -9 8 -7 -11 -19 -5 -56 30 -60 55 -56 52 -140 124 -39 33 -72 62
-75 65 -3 3 -32 27 -65 54 -88 73 -86 71 -144 126 -29 27 -57 50 -62 50 -5 0
-9 6 -9 14 0 8 -9 17 -19 21 -26 8 -29 20 -36 127 -4 51 -8 113 -10 138 -2 25
-7 112 -10 195 -4 82 -11 161 -16 174 -11 28 -5 38 14 23 7 -6 22 -9 33 -6 11
3 29 -3 42 -14 26 -23 29 -37 6 -28 -14 5 -15 4 -4 -9 20 -24 38 -18 34 11 -1
14 -4 27 -6 29 -2 1 -25 19 -52 40 -34 26 -51 33 -56 25 -5 -8 -9 -3 -12 13
-4 20 -1 23 14 19 23 -6 25 23 2 32 -9 4 -14 9 -11 13 4 3 25 -6 48 -21 22
-15 48 -25 56 -22 9 4 17 -1 20 -13 3 -13 10 -18 21 -14 11 5 14 2 9 -10 -9
-24 10 -31 23 -7 7 13 7 20 0 20 -5 0 -9 5 -7 12 1 6 -43 46 -97 88 -55 42
-101 81 -103 87 -2 6 23 13 59 17 41 5 81 18 116 37 l52 29 0 -132 c0 -72 2
-129 5 -126 3 2 8 54 11 114 3 60 12 124 20 143 8 18 14 47 14 63 0 19 4 27
12 22 7 -4 8 -3 4 4 -7 12 8 44 39 80 18 22 18 23 1 16 -18 -7 -18 -6 -1 19 9
15 24 27 32 27 8 0 12 4 9 9 -7 11 70 92 78 83 4 -3 9 4 13 16 3 12 10 21 17
20 19 -4 57 22 50 34 -4 7 -3 8 4 4 6 -4 24 1 39 11 15 10 43 24 63 31 76 28
186 62 203 62 11 0 21 9 24 21 4 13 8 17 13 9 5 -8 37 -4 119 16 75 19 107 31
99 37 -9 6 -7 7 5 3 10 -3 67 5 127 19 60 14 122 25 139 25 16 0 33 5 36 10 6
10 1 10 -80 3z m-1210 -835 c15 -15 -55 1 -82 18 -13 8 -23 21 -23 29 0 11 11
8 48 -11 26 -15 52 -31 57 -36z"/>
<path d="M1890 2530 c-25 -5 -61 -7 -80 -4 -25 3 -29 2 -15 -4 17 -8 16 -10
-10 -17 -17 -5 -37 -10 -45 -11 -8 -1 -28 -7 -43 -13 -15 -6 -31 -10 -35 -9
-4 1 -14 -1 -22 -4 -24 -9 -120 -36 -190 -54 -36 -9 -73 -20 -82 -25 -10 -5
-34 -13 -55 -18 -97 -24 -159 -44 -207 -65 -73 -33 -171 -110 -208 -165 -18
-25 -40 -52 -50 -59 -10 -7 -21 -31 -24 -52 -4 -24 -11 -37 -17 -33 -6 3 -7 1
-3 -5 4 -7 2 -40 -4 -74 -18 -97 -16 -324 2 -346 9 -9 23 -30 31 -47 9 -16 16
-24 17 -17 0 6 6 12 14 12 31 0 25 20 -14 47 l-40 28 1 140 c0 219 32 315 147
436 83 89 168 132 302 154 119 20 396 96 515 141 135 51 184 59 244 39 26 -8
59 -27 72 -41 21 -22 21 -24 4 -18 -11 4 -26 11 -33 17 -8 6 -7 -3 4 -28 26
-64 34 -144 25 -265 -7 -106 -7 -116 10 -128 11 -7 19 -20 19 -29 0 -14 2 -14
15 3 8 10 15 13 15 7 0 -7 16 -20 36 -28 34 -14 36 -17 32 -51 l-4 -36 47 4
c60 6 85 -6 44 -22 -15 -6 -36 -8 -44 -5 -23 9 -121 11 -108 3 7 -4 31 -8 55
-8 35 0 42 -3 42 -20 0 -17 -7 -20 -42 -20 -23 0 -38 -3 -34 -7 13 -14 170
-22 182 -10 14 14 -5 18 -27 7 -19 -11 -21 -10 -16 3 3 9 1 18 -6 20 -9 3 -7
9 4 21 13 14 20 15 42 5 15 -7 24 -16 21 -21 -3 -5 0 -8 7 -7 8 1 21 0 29 -4
8 -3 28 -8 44 -12 39 -8 27 -17 -79 -55 -49 -18 -106 -40 -125 -50 -19 -9 -98
-38 -175 -64 -193 -65 -360 -126 -615 -222 -69 -26 -150 -56 -180 -67 -60 -21
-84 -37 -58 -37 13 0 73 20 198 67 8 3 20 7 25 9 6 2 78 28 160 59 83 31 168
62 190 70 62 20 200 72 237 88 18 9 51 21 73 27 22 7 45 16 51 21 5 5 35 15
65 23 30 8 75 21 102 29 32 10 47 11 47 4 0 -6 7 -2 15 9 8 10 15 16 15 12 0
-4 12 -3 28 2 25 9 26 9 8 -5 -18 -14 -15 -20 8 -16 5 1 5 -8 1 -21 -8 -26
-22 -121 -29 -205 -17 -182 -26 -270 -30 -290 -3 -12 -7 -53 -11 -90 -12 -133
-15 -155 -25 -174 -6 -10 -17 -19 -25 -19 -8 0 -15 -9 -15 -20 0 -26 9 -25 51
3 39 26 31 -21 84 517 16 157 33 278 41 298 9 18 14 47 12 64 -3 28 -12 35
-96 80 -57 30 -100 47 -111 43 -23 -7 -32 21 -24 71 4 25 1 40 -12 54 -21 23
-67 28 -59 6 3 -8 15 -11 30 -8 14 2 24 0 24 -7 0 -15 -35 -17 -87 -6 -28 7
-30 25 -3 32 19 5 20 14 20 133 0 80 -5 144 -14 174 -37 122 -142 181 -276
156z"/>
<path d="M1236 2379 c-33 -11 -62 -22 -65 -25 -10 -10 61 7 109 27 59 23 31
22 -44 -2z"/>
<path d="M1590 2191 c-69 -21 -213 -64 -320 -95 -319 -93 -420 -126 -420 -136
0 -6 18 -10 40 -10 23 0 40 5 40 11 0 6 7 8 16 5 8 -3 13 -2 10 3 -3 4 19 11
50 15 30 3 78 18 107 32 44 21 136 45 185 47 6 0 12 4 12 9 0 4 8 8 18 8 9 0
26 7 36 15 11 8 33 15 48 15 39 0 148 31 142 41 -6 11 20 17 111 24 74 6 85 5
140 -21 33 -15 69 -31 80 -34 14 -4 -1 -13 -57 -34 -48 -17 -86 -25 -100 -21
-16 4 -19 3 -10 -3 10 -7 -5 -16 -53 -33 -63 -22 -105 -50 -74 -48 19 1 56 17
44 19 -5 1 6 7 25 14 30 11 36 11 42 -3 5 -12 7 -10 7 8 1 13 4 21 8 18 3 -4
12 -2 20 4 7 6 22 9 34 6 12 -3 18 -3 15 0 -10 10 107 53 144 52 29 0 32 -2
15 -9 -127 -57 -145 -68 -144 -88 0 -10 3 -12 6 -4 2 6 14 12 26 12 26 0 62
20 38 20 -23 0 2 21 27 23 11 0 18 5 15 11 -4 5 1 7 11 3 10 -4 23 -1 31 7 18
18 63 9 70 -15 7 -21 13 -23 33 -10 17 10 -6 26 -109 73 -42 20 -104 52 -138
72 -34 20 -70 36 -79 35 -9 -1 -73 -18 -142 -38z"/>
<path d="M1900 2030 c-11 -7 -11 -10 -2 -10 7 0 10 -5 6 -12 -4 -7 -3 -8 4 -4
7 4 27 3 45 -2 24 -7 42 -6 63 4 l29 13 -37 -5 c-47 -7 -107 4 -87 17 8 5 10
9 4 9 -5 0 -17 -5 -25 -10z"/>
<path d="M2051 2001 c-12 -11 -44 -24 -69 -30 -26 -5 -89 -26 -140 -45 -52
-20 -108 -36 -125 -36 -19 0 -55 15 -90 36 -47 29 -61 33 -72 24 -19 -16 -19
-34 1 -51 14 -11 14 -13 0 -21 -9 -5 -16 -17 -16 -28 0 -24 133 -110 170 -110
15 0 58 14 96 31 59 27 76 31 123 26 58 -6 103 9 114 38 8 18 -2 19 -26 1 -10
-8 -46 -14 -83 -15 -65 -1 -159 -25 -170 -42 -3 -5 -10 -7 -15 -4 -5 4 -16 2
-26 -3 -17 -10 -44 1 -104 41 -29 19 -41 47 -29 67 6 9 15 8 38 -4 17 -9 44
-16 59 -15 l28 1 -31 8 c-30 7 -94 46 -94 57 0 3 20 -7 44 -21 71 -41 98 -37
331 49 14 6 17 5 10 -2 -5 -6 -49 -25 -97 -44 -49 -18 -87 -34 -85 -35 4 -4
91 20 97 26 8 10 63 29 103 36 20 3 37 10 37 15 0 5 16 6 35 3 30 -4 35 -2 35
15 0 25 -10 51 -20 51 -4 0 -17 -9 -29 -19z"/>
<path d="M1630 1975 c-37 -14 -23 -18 20 -6 17 5 29 2 37 -8 6 -9 15 -12 20
-8 4 5 -1 15 -11 23 -23 16 -21 16 -66 -1z"/>
<path d="M1104 1856 c-206 -72 -212 -75 -193 -87 23 -14 39 -10 32 7 -4 12 -1
15 12 13 27 -6 29 -24 3 -37 -20 -10 -19 -10 12 -5 19 3 40 9 45 13 6 3 29 13
53 20 45 14 74 39 31 26 -13 -4 -28 -8 -34 -10 -5 -1 -23 -9 -38 -16 -24 -12
-30 -11 -45 3 -14 15 -14 17 -1 17 8 0 44 11 79 25 47 19 67 22 77 14 10 -9
13 -7 14 7 0 11 3 14 6 7 2 -7 12 -13 21 -13 14 0 15 2 2 10 -11 7 -8 11 15
20 80 32 108 39 119 33 6 -4 20 -7 31 -5 20 2 20 2 0 -7 -11 -4 -26 -6 -32 -4
-7 3 -13 0 -13 -6 0 -6 8 -11 18 -11 14 0 15 -2 2 -10 -9 -6 -11 -10 -3 -10 8
0 10 -7 6 -17 -7 -17 -6 -17 11 0 9 9 21 17 26 17 5 0 7 8 4 18 -4 12 -3 13 3
4 5 -7 17 -10 25 -7 9 4 19 2 23 -4 3 -6 -1 -11 -9 -11 -8 0 -17 -4 -20 -8 -2
-4 10 -8 29 -8 30 0 32 2 23 21 -12 27 -62 53 -113 59 -32 4 -79 -8 -221 -58z"/>
<path d="M1224 1847 c-20 -10 -20 -11 -2 -29 10 -10 21 -18 26 -19 4 0 13 -5
19 -11 7 -6 20 -8 28 -4 30 11 14 -14 -17 -29 -41 -19 -25 -15 80 20 45 16 80
30 78 33 -3 2 -28 -4 -56 -13 -36 -12 -55 -14 -62 -7 -6 6 -17 8 -26 5 -11 -5
-13 -3 -7 7 5 8 4 11 -2 7 -6 -4 -22 2 -34 13 -13 11 -19 19 -13 20 5 0 15 -5
21 -11 13 -13 56 -2 47 13 -4 6 -10 6 -17 -1 -16 -16 -27 -13 -21 4 7 17 -10
18 -42 2z"/>
<path d="M1470 1821 c0 -14 -9 -23 -25 -27 -22 -5 -24 -9 -13 -22 9 -11 9 -14
1 -9 -7 4 -29 1 -49 -8 -20 -8 -40 -13 -44 -10 -5 3 -32 -4 -60 -15 -28 -11
-60 -20 -71 -20 -19 0 -20 -4 -13 -56 10 -84 21 -93 97 -80 60 11 113 37 130
63 4 7 17 13 27 13 10 0 21 4 25 9 11 18 16 121 6 121 -7 0 -7 9 -1 25 6 15 6
26 0 30 -6 4 -10 -3 -10 -14z m-22 -88 c2 -36 -10 -73 -23 -73 -8 0 -18 -6
-22 -13 -20 -31 -132 -62 -157 -43 -14 11 -20 28 -17 52 0 6 22 19 49 29 26
10 51 21 56 26 10 9 -34 -1 -49 -11 -18 -13 -67 -22 -60 -11 8 14 102 41 118
35 7 -2 30 2 52 10 52 19 52 19 53 -1z"/>
<path d="M1130 1810 c0 -5 6 -10 14 -10 7 0 19 -7 26 -15 17 -20 27 -19 32 3
4 15 1 18 -18 14 -14 -2 -24 0 -24 7 0 6 -7 11 -15 11 -8 0 -15 -4 -15 -10z"/>
<path d="M1134 1777 c17 -12 17 -14 2 -20 -30 -12 -18 -26 14 -16 35 13 38 24
11 39 -29 15 -48 12 -27 -3z"/>
<path d="M2045 1775 c-3 -8 -7 -21 -9 -28 -4 -15 10 -45 17 -37 11 13 17 80 7
80 -6 0 -13 -7 -15 -15z"/>
<path d="M2204 1775 c3 -8 -3 -16 -12 -19 -9 -2 -3 -3 13 -1 17 2 34 4 38 4
15 2 -2 18 -24 24 -15 4 -19 2 -15 -8z"/>
<path d="M887 1733 c-3 -10 -4 -45 -4 -78 l2 -60 50 -27 c56 -29 75 -34 75
-16 0 6 6 19 14 27 7 9 16 33 19 54 5 34 4 37 -18 37 -13 0 -46 18 -74 40 -28
22 -52 40 -55 40 -3 0 -7 -8 -9 -17z m66 -48 c18 -13 44 -28 57 -34 17 -7 20
-10 8 -10 -11 -1 -15 -6 -12 -16 4 -8 -1 -17 -9 -21 -9 -3 -14 -11 -11 -18 3
-9 -4 -11 -26 -8 -17 2 -29 7 -26 10 3 2 -4 16 -14 30 -21 26 -27 47 -11 38 5
-4 11 -1 13 5 2 5 11 7 21 4 9 -4 14 -12 10 -19 -3 -6 -3 -8 2 -4 4 4 14 3 22
-3 9 -9 13 -8 13 0 0 6 -3 11 -7 11 -11 1 -80 59 -70 60 5 0 23 -11 40 -25z"/>
<path d="M1028 1743 c28 -11 9 -23 -30 -18 -36 4 -40 3 -23 -7 18 -11 84 -13
93 -3 7 7 -26 35 -40 34 -10 0 -10 -2 0 -6z"/>
<path d="M1111 1651 l-33 -6 21 -19 c11 -11 21 -14 21 -9 0 6 11 14 25 17 14
4 25 11 25 16 0 11 -6 11 -59 1z"/>
<path d="M2150 1635 c-14 -8 -33 -14 -42 -15 -10 0 -18 -4 -18 -10 0 -8 97 23
109 36 10 10 -26 2 -49 -11z"/>
<path d="M690 1575 c0 -8 4 -15 9 -15 4 0 19 -10 32 -22 33 -31 80 -61 85 -55
5 5 -110 107 -120 107 -3 0 -6 -7 -6 -15z"/>
<path d="M1140 1564 c0 -8 -4 -13 -9 -10 -11 7 -41 -3 -41 -14 0 -4 7 -11 16
-14 8 -3 12 -2 9 3 -3 5 -1 12 5 16 6 3 13 -1 16 -9 4 -12 11 -13 24 -6 9 5
20 7 22 4 10 -9 16 23 7 37 -7 11 -9 11 -9 -2 0 -9 -7 -20 -16 -23 -13 -5 -15
-2 -11 14 3 11 1 20 -4 20 -5 0 -9 -7 -9 -16z"/>
<path d="M1810 1511 c-186 -69 -278 -106 -230 -95 31 8 423 153 429 159 11 12
-26 0 -199 -64z"/>
<path d="M886 1522 c-6 -10 8 -34 20 -33 5 1 9 -4 9 -11 0 -6 9 -12 20 -14 11
-2 27 -12 37 -23 9 -12 21 -21 27 -21 6 0 11 -5 11 -11 0 -5 5 -7 10 -4 15 9
0 26 -54 60 -25 15 -47 36 -49 47 -5 18 -22 24 -31 10z"/>
<path d="M1005 1520 c-4 -7 2 -21 13 -33 18 -18 22 -19 27 -5 6 14 10 14 33 2
14 -7 36 -11 48 -8 14 4 23 0 27 -10 4 -9 17 -16 31 -16 14 0 28 -4 31 -10 4
-6 -1 -7 -12 -3 -10 3 -15 3 -11 -2 14 -15 76 -14 82 2 4 10 1 13 -13 8 -11
-3 -24 1 -32 11 -11 14 -10 18 6 31 19 15 19 15 -5 8 -40 -11 -75 -11 -73 1 1
6 -8 9 -21 7 -21 -4 -67 5 -107 22 -10 3 -20 1 -24 -5z"/>
<path d="M810 1421 c0 -22 4 -29 14 -25 19 7 77 -27 69 -40 -3 -6 -3 -8 2 -4
4 4 14 3 22 -3 9 -8 13 -8 13 -1 0 6 -27 32 -60 57 l-60 46 0 -30z"/>
<path d="M720 1400 c0 -25 4 -39 10 -35 6 3 10 19 10 35 0 16 -4 32 -10 35 -6
4 -10 -10 -10 -35z"/>
<path d="M1382 1352 c-34 -14 -61 -27 -59 -29 4 -3 139 45 146 53 11 11 -30 0
-87 -24z"/>
<path d="M841 1333 c1 -5 1 -19 0 -33 -1 -18 -4 -21 -10 -12 -6 10 -10 6 -14
-15 -6 -34 -7 -33 21 -22 31 12 49 53 32 74 -13 16 -31 20 -29 8z"/>
<path d="M1160 1321 c13 -26 13 -29 -7 -34 -16 -4 -16 -5 -1 -6 20 -1 48 25
48 45 0 8 -10 14 -25 14 -22 0 -24 -3 -15 -19z"/>
<path d="M2160 978 c0 -35 14 -88 22 -88 6 0 7 13 2 33 -4 17 -7 40 -6 50 0 9
-3 17 -9 17 -5 0 -9 -6 -9 -12z"/>
<path d="M1470 618 c0 -14 7 -31 16 -39 13 -11 14 -9 8 17 -9 40 -24 54 -24
22z"/>
<path d="M1370 585 c-25 -13 -40 -24 -33 -25 18 0 83 32 83 42 0 10 3 11 -50
-17z"/>
<path d="M1435 530 c-37 -18 -38 -19 -12 -17 16 1 33 7 39 14 9 11 14 11 27 1
14 -12 14 -11 2 5 -7 9 -14 17 -15 17 0 -1 -19 -9 -41 -20z"/>
<path d="M1334 514 c3 -9 6 -18 6 -20 0 -2 7 -4 15 -4 18 0 19 12 3 28 -17 17
-31 15 -24 -4z"/>
<path d="M1128 369 c-13 -4 15 -7 62 -7 87 0 91 5 8 10 -26 2 -57 0 -70 -3z"/>
</g>
</svg>
